<svg xmlns="http://www.w3.org/2000/svg" width="51" height="28" viewBox="0 0 51 28">
  <path fill="#00c7e6" d="M50.1742779,8.12503005 C49.8027946,7.84899692 49.3225226,7.76452884 48.8788716,7.89737587 L40.4930563,10.4100576 C39.1593688,7.66630787 36.3072287,5.15664984 32.2948381,3.23504966 C32.0746239,3.12961086 31.8512847,3.02700067 31.626383,2.9262437 L36.7477548,2.9262437 C37.5567368,2.9262437 38.2125942,2.27117711 38.2125942,1.46317062 C38.2125942,0.655164125 37.5567368,0 36.7477548,0 L20.9533674,0 L20.9533674,0.148453149 L20.9533674,1.61689083 L20.9533674,2.9262437 L20.9533674,3.08776697 L20.9533674,13.9999512 C20.9533674,14.8079577 20.29751,15.4630243 19.488528,15.4630243 C18.679546,15.4630243 18.0236885,14.8079577 18.0236885,13.9999512 L18.0236885,2.92692647 L18.0236885,2.92614616 L18.0236885,1.46385339 L18.0236885,0.000780305643 L18.0236885,0 L17.9195873,0 C13.2199917,0 8.77020001,2.34911014 5.05126559,6.79334093 C2.31924234,10.0581397 0.937215143,13.2954328 0.87969578,13.4316936 C0.726375917,13.7950235 0.726375917,14.2050741 0.87969578,14.5684039 C0.937215143,14.7045672 2.31924234,17.9419578 5.05126559,21.2067566 C8.77010235,25.6509874 13.219894,28 17.9195873,28 L36.7477548,28 C37.5567368,28 38.2125942,27.3449334 38.2125942,26.5369269 C38.2125942,25.7289204 37.5567368,25.0738538 36.7477548,25.0738538 L31.626383,25.0738538 C31.8512847,24.9730969 32.0746239,24.8704867 32.2948381,24.7650479 C36.3072287,22.8434477 39.1592711,20.3336921 40.4929586,17.59004 L48.8788716,20.1027217 C49.0171524,20.1441754 49.1587536,20.1643658 49.2997688,20.1643658 C49.6111936,20.1643658 49.918517,20.0651695 50.1742779,19.875165 C50.5457612,19.5991319 50.7647059,19.1638189 50.7647059,18.7012927 L50.7647059,9.29880481 C50.7647059,8.83627864 50.5456636,8.40106317 50.1742779,8.12503005 Z M12.7121806,12.1086854 C12.4387439,12.380817 12.0617919,12.5369757 11.6760509,12.5369757 C11.2904075,12.5369757 10.9134554,12.380817 10.6400187,12.1086854 C10.3675586,11.8355785 10.2112114,11.459081 10.2112114,11.0739026 C10.2112114,10.6886267 10.3675586,10.3120317 10.6400187,10.0390222 C10.9134554,9.76689066 11.2904075,9.61082953 11.6760509,9.61082953 C12.0617919,9.61082953 12.4388416,9.76689066 12.7121806,10.0390222 C12.9846408,10.3121292 13.1408903,10.6886267 13.1408903,11.0739026 C13.1408903,11.4581056 12.9847384,11.835676 12.7121806,12.1086854 Z"/>
</svg>
