<svg xmlns="http://www.w3.org/2000/svg" width="48" height="48" viewBox="0 0 48 48">
  <path fill="#00c7e6" d="M33.6460313,7.4116875 C32.0818125,6.80325 31.03125,5.18146875 31.03125,3.37415625 L31.03125,1.40625 C31.03125,0.62896875 30.4022813,0 29.625,0 C28.8477187,0 28.21875,0.62896875 28.21875,1.40625 C28.21875,3.7325625 26.3263125,5.625 24,5.625 C21.6736875,5.625 19.78125,3.7325625 19.78125,1.40625 C19.78125,0.62896875 19.1522813,0 18.375,0 C17.5977187,0 16.96875,0.62896875 16.96875,1.40625 L16.96875,3.37415625 C16.96875,5.181375 15.9181875,6.80325 14.3539687,7.41159375 C5.69128125,10.7844375 0,18.456 0,26.8125 C0,27.5678438 0.04809375,28.312125 0.1359375,29.0468437 C0.19359375,29.5302187 0.49715625,29.9490937 0.93796875,30.1550625 C1.38290625,30.3610312 1.89515625,30.3253125 2.30165625,30.0575625 C4.14459375,28.8545625 6.36009375,28.21875 8.53125,28.21875 C12.3585937,28.21875 15.883875,30.2543438 17.9589375,33.5076563 C19.0026563,35.1434062 20.6832188,36.2108438 22.59375,36.5781563 L22.59375,36.75 C22.59375,39.8522813 25.1164687,42.375 28.21875,42.375 L35.25,42.375 C37.5763125,42.375 39.46875,44.2674375 39.46875,46.59375 C39.46875,47.3710313 40.0977187,48 40.875,48 C41.6522813,48 42.28125,47.3710313 42.28125,46.59375 C42.28125,42.7169063 39.1268437,39.5625 35.25,39.5625 L28.21875,39.5625 C26.6683125,39.5625 25.40625,38.3004375 25.40625,36.75 L25.40625,36.5781562 C27.316875,36.2108437 28.9974375,35.1434062 30.0410625,33.5076562 C32.116125,30.2543437 35.6414063,28.21875 39.46875,28.21875 C41.6399062,28.21875 43.8554063,28.8545625 45.6983437,30.0575625 C46.1034375,30.324 46.6170938,30.3583125 47.0620313,30.1550625 C47.5028437,29.9490937 47.8063125,29.5302187 47.8640625,29.0468437 C47.952,28.312125 48,27.5678437 48,26.8125 C48,18.456 42.3087187,10.7844375 33.6460312,7.4116875 L33.6460313,7.4116875 Z M26.8125,25.40625 L21.1875,25.40625 C20.4102187,25.40625 19.78125,24.7772813 19.78125,24 C19.78125,23.2227188 20.4102187,22.59375 21.1875,22.59375 L26.8125,22.59375 C27.5897813,22.59375 28.21875,23.2227188 28.21875,24 C28.21875,24.7772813 27.5897813,25.40625 26.8125,25.40625 Z M29.625,19.78125 L18.375,19.78125 C17.5977187,19.78125 16.96875,19.1522813 16.96875,18.375 C16.96875,17.5977187 17.5977187,16.96875 18.375,16.96875 L29.625,16.96875 C30.4022813,16.96875 31.03125,17.5977187 31.03125,18.375 C31.03125,19.1522813 30.4022813,19.78125 29.625,19.78125 Z"/>
</svg>
