<svg xmlns="http://www.w3.org/2000/svg" width="42" height="42" viewBox="0 0 42 42">
  <g fill="#00c7e6">
    <path d="M36.1272973 10.1103458C36.7254036 10.7070958 37.2485437 11.328454 37.6970423 12 38.5693752 10.8560404 39.2921003 9.33939538 39.6909461 7.79781834 40.3137165 5.38621029 39.9898369 3.42208372 38.7686357 2.22826 37.5727478 1.0101519 35.5791685.687006736 33.1867436 1.30836495 31.6666516 1.70630625 30.1465596 2.42739253 29 3.29774732 29.6730723 3.77016089 30.2961672 4.29211473 30.8689603 4.86393269L36.1272973 10.1103458zM38.8598388 19L30.0443029 19.1285219 29 23.2405525 35.3145221 30C35.9701369 29.25464 36.5286587 28.4835088 37.0628281 27.6611696 38.7143575 25.0395241 39.2972316 21.9556684 38.8598388 19zM6.55417586 27.7830725L7.92769087 33.2049581C8.02402837 33.6386336 8.36136636 33.9759716 8.79535571 34.0723091L14.2169275 35.4458241C15.4699422 35.7589994 16.7229569 35.9516743 18.0001345 36L20 25.0360425 16.9639575 22 6 23.9998655C6.04832568 25.2770431 6.24100058 26.5300578 6.55417586 27.7830725L6.55417586 27.7830725zM10.922193 9C10.2751697 9.74510362 9.74370759 10.5413974 9.23541805 11.3634539 7.31721936 14.5492987 6.20795034 18.2490542 6 22L15.9599475 19.9704543 17 15.7052632 10.922193 9z"/>
    <polygon points="19 21.725 22.275 25 26.775 23.802 28 19.302 24.698 16 20.198 17.225"/>
    <path d="M13 7.66142033L19.1590778 14 22.8828876 12.9556936 23 4.14012768C20.3067188 3.7027334 17.49663 4.28592582 15.1077191 5.93714448 14.3583824 6.44696338 13.6557077 7.03015573 13 7.66142033zM38 16.8778504C37.4367724 15.3836709 36.5306968 13.9877212 35.3551268 12.8121512L30.1875299 7.6448732C29.0122788 6.46962206 27.6163291 5.56322759 26.1224685 5L26 13.6939882 29.3060118 17 38 16.8778504zM22.8734268 26.1343055L21 37C24.4624115 36.7731389 27.8775705 35.5629941 30.8180414 33.4706848 31.5771716 32.9158436 32.312212 32.336051 33 31.6554677L26.8102175 25 22.8734268 26.1343055zM5.01040496 34.1284972L4.49059907 32 4.20497657 32.2853323C3.03575172 33.4537069 2.28176245 36.9841859 2.0221979 38.4639241 1.94402395 38.8794139 2.07397542 39.320597 2.38599436 39.6062672 2.72034867 39.9774696 3.28177966 40.0521834 3.52916126 39.9696939 5.01040496 39.7100552 8.54447577 38.9571702 9.71403901 37.7887957L10 37.5034635 7.86899894 36.9581544C6.46559071 36.6207592 5.37420133 35.5304791 5.01040496 34.1284972L5.01040496 34.1284972zM4.62523595 2.95305065C6.35391735 3.96444143 8.1293999 5.45622543 9.53965556 7 10.5402529 5.82882476 11.6320828 4.76440358 12.8376574 3.80638996 14.1113603 2.8213411 15.521616 2.10283084 17 1.67685444 13.2014033.0800493764 8.94693943-.480409414 4.92085346.451262378 4.44336298.557323185 4.07932095 1.00998808 4.01119261 1.59540246 3.94276817 2.15447483 4.19306558 2.68685871 4.62523595 2.95305065zM40.2934788 25C39.8964162 26.5683047 39.1819103 28.0871513 38.1761563 29.5083578 37.2231371 30.8070354 36.1646481 31.9831842 35 33.0613739 36.5351709 34.5802204 38.0000287 36.4752686 39.0057827 38.3374512 39.4352446 39.0892163 40.32381 38.9922144 40.35552 38.9992343 40.9376716 38.9255255 41.4581269 38.5336886 41.564286 38.0190039 42.4904208 33.682314 41.8813847 29.0919513 40.2934788 25L40.2934788 25zM3.94356386 20C1.66449843 21.861477 0 24.7508232 0 27.7240016 0 28.2411346.337517153 28.7064196.844342643 28.9131382 1.62601921 29.1181734 2.1540999 28.9346855 2.48721943 28.6289844 2.88117273 28.2670586 3.52175898 27.807497 4 27.6267025 3.54961065 25.0928851 3.52175898 22.5334806 3.94356386 20L3.94356386 20zM14.37003 38C14.1639145 38.4727174 13.7315417 39.1054204 13.3706715 39.4666546 13.0098013 39.8836304 12.9064078 40.6104425 13.0870108 41.1385395 13.2931263 41.6387657 13.7570543 42 14.2985274 42 17.2371854 42 20.1184398 40.3071216 22 38.0832504 20.8139961 38.2501131 19.5769668 38.3615963 18.3654501 38.3615963 17.0250273 38.3612343 15.6846045 38.2226043 14.37003 38L14.37003 38z"/>
  </g>
</svg>
