<?xml version="1.0" encoding="utf-8"?>
<!-- Generator: Adobe Illustrator 24.0.3, SVG Export Plug-In . SVG Version: 6.00 Build 0)  -->
<svg version="1.1" id="Layer_1" xmlns="http://www.w3.org/2000/svg" xmlns:xlink="http://www.w3.org/1999/xlink" x="0px" y="0px"
	 viewBox="0 0 1024 1024" style="enable-background:new 0 0 1024 1024;" xml:space="preserve">
<style type="text/css">
	.st0{fill:url(#SVGID_1_);}
	.st1{fill:url(#SVGID_2_);}
	.st2{fill:url(#SVGID_3_);}
</style>
<radialGradient id="SVGID_1_" cx="519.8998" cy="519.5255" r="495.7704" gradientUnits="userSpaceOnUse">
	<stop  offset="0.0256" style="stop-color:#0E4690"/>
	<stop  offset="0.4875" style="stop-color:#0E458E"/>
	<stop  offset="0.6537" style="stop-color:#0D4387"/>
	<stop  offset="0.7689" style="stop-color:#0C3E7C"/>
	<stop  offset="0.8278" style="stop-color:#0D3971"/>
	<stop  offset="0.9318" style="stop-color:#0F2B53"/>
	<stop  offset="1" style="stop-color:#11213C"/>
</radialGradient>
<circle class="st0" cx="510" cy="512" r="512"/>
<g>
	<g>
		<linearGradient id="SVGID_2_" gradientUnits="userSpaceOnUse" x1="491.7175" y1="207.5073" x2="548.3873" y2="1782.4553">
			<stop  offset="0" style="stop-color:#A2D3F3"/>
			<stop  offset="1" style="stop-color:#00A5D3"/>
		</linearGradient>
		<path class="st1" d="M91.04,478.29h75.51v165.42h101.11v58.55H91.04V478.29z M444.23,663.22h-85.11l-15.04,39.03H267.3
			l97.9-223.97h74.23l97.91,223.97h-78.07L444.23,663.22z M423.44,608.83l-21.76-56.31l-21.76,56.31H423.44z M528.35,674.1
			l40.63-47.99c11.84,14.72,23.04,22.08,35.52,22.08c15.68,0,24.31-9.6,24.31-27.83v-85.11h-76.15v-56.95h150.7v137.58
			c0,61.43-32.31,91.51-92.47,91.51C576.02,707.38,546.91,695.86,528.35,674.1z M924.1,645.31v56.95H737.89V478.29h182.05v56.95
			H812.12v26.24h94.71v54.39h-94.71v29.44H924.1z"/>
		<linearGradient id="SVGID_3_" gradientUnits="userSpaceOnUse" x1="494.7021" y1="134.3547" x2="560.3963" y2="1960.1056">
			<stop  offset="0" style="stop-color:#A2D3F3"/>
			<stop  offset="1" style="stop-color:#00A5D3"/>
		</linearGradient>
		<path class="st2" d="M910.36,399.48c12.56-63.51-54.13-71.82-77.8-80.84c0.2,0.95,0.37,1.78,0.76,3.72
			c-22.86-14.49-50.85-16.96-71.24-22.05c-6.6-0.02-10.68-3.29-31.68-4.82c15.24,11.24-14.28-5.18-18.76-4.5
			c0.22-0.57,0.43-1.1,0.64-1.64c-16.19-0.85-38.65-1.6-48.28-6.85c0.3,1.57,0.42,2.2,0.53,2.73c-25.57-7.85-24.55-3.32-8.87,3.92
			c-16.23-5.24-36.81-10.93-39.35-12.98c-10.39-2.67-11.79-1.7-16.82-2.35c0.37-0.73,12.61,2.78,13.28,1.47
			c-3.66,1.11-17.13-2.42-19.79-2.17l7.98,2.14h-14.66V200.9h14.66v-5.39h-14.66h-11.35v-18.77h5.64V159.5
			c0-2.73-2.21-4.94-4.94-4.94h-5.38c-2.73,0-4.94,2.21-4.94,4.94v17.25h5.24v18.77h-11.22h-14.66v5.39h14.66v74.35h-14.66
			l12.22-2.02c-2.68,0.52-4.84,1.43-6.19,3c-38.05-5.55-72.46,15.26-109.19,28.33c0.06-0.07,0.09-0.11,0.07-0.08
			c-13.31,3.64-25.32,7.07-33.61,14.5c-6.28-1.98-11.78,0.51-17.18,5.89c0.04-0.85,0.07-1.44,0.09-2.04
			c-19.97,6.18-44.79,6.84-59.58,12.69c0.28-0.53,0.56-1.06,1.1-2.08c-7.19,1.39-15.7-0.65-17.17,3.52c1.3,0,3.96,0,3.96,0
			s-35.84,15.48-48.59,29.59c-39.58,19.38-147.58,30.93-179.67,66.08c271.81-5.62,535.42-2.5,808.41,0
			C933.53,434.95,915.41,419.73,910.36,399.48z M442.09,306.41c-4.99,3.34-1.15-1.19-0.58-1.84c1.46,0,2.92,0,4.32,0
			C435.84,322.49,441.14,312.29,442.09,306.41z"/>
	</g>
</g>
</svg>
