<?xml version="1.0" encoding="UTF-8" standalone="no"?>
<svg
   xmlns:dc="http://purl.org/dc/elements/1.1/"
   xmlns:cc="http://creativecommons.org/ns#"
   xmlns:rdf="http://www.w3.org/1999/02/22-rdf-syntax-ns#"
   xmlns:svg="http://www.w3.org/2000/svg"
   xmlns="http://www.w3.org/2000/svg"
   xmlns:sodipodi="http://sodipodi.sourceforge.net/DTD/sodipodi-0.dtd"
   xmlns:inkscape="http://www.inkscape.org/namespaces/inkscape"
   id="svg12"
   preserveAspectRatio="xMidYMid meet"
   viewBox="0 0 512 512"
   height="512pt"
   width="512pt"
   version="1.0"
   sodipodi:docname="arrows3d.svg"
   inkscape:version="0.92.2 5c3e80d, 2017-08-06">
  <sodipodi:namedview
     pagecolor="#ffffff"
     bordercolor="#666666"
     borderopacity="1"
     objecttolerance="10"
     gridtolerance="10"
     guidetolerance="10"
     inkscape:pageopacity="0"
     inkscape:pageshadow="2"
     inkscape:window-width="1920"
     inkscape:window-height="1025"
     id="namedview15"
     showgrid="false"
     inkscape:zoom="0.34570313"
     inkscape:cx="347.11864"
     inkscape:cy="341.33333"
     inkscape:window-x="-2"
     inkscape:window-y="-3"
     inkscape:window-maximized="1"
     inkscape:current-layer="svg12" />
  <defs
     id="defs16">
    <marker
       orient="auto"
       refY="0"
       refX="0"
       id="marker1207"
       style="overflow:visible">
      <path
         id="path1205"
         d="M 0,0 5,-5 -12.5,0 5,5 Z"
         style="fill:#000000;fill-opacity:1;fill-rule:evenodd;stroke:#000000;stroke-width:1.00000003pt;stroke-opacity:1"
         transform="matrix(0.8,0,0,0.8,10,0)" />
    </marker>
    <marker
       orient="auto"
       refY="0"
       refX="0"
       id="marker1155"
       style="overflow:visible">
      <path
         id="path1153"
         d="M 0,0 5,-5 -12.5,0 5,5 Z"
         style="fill:#000000;fill-opacity:1;fill-rule:evenodd;stroke:#000000;stroke-width:1.00000003pt;stroke-opacity:1"
         transform="matrix(0.8,0,0,0.8,10,0)" />
    </marker>
    <marker
       style="overflow:visible"
       id="Arrow1Lend"
       refX="0"
       refY="0"
       orient="auto">
      <path
         transform="matrix(-0.8,0,0,-0.8,-10,0)"
         style="fill:#000000;fill-opacity:1;fill-rule:evenodd;stroke:#000000;stroke-width:1.00000003pt;stroke-opacity:1"
         d="M 0,0 5,-5 -12.5,0 5,5 Z"
         id="path828" />
    </marker>
  </defs>
  <metadata
     id="metadata2">
Created by potrace 1.16, written by Peter Selinger 2001-2019
<rdf:RDF>
  <cc:Work
     rdf:about="">
    <dc:format>image/svg+xml</dc:format>
    <dc:type
       rdf:resource="http://purl.org/dc/dcmitype/StillImage" />
    <dc:title></dc:title>
  </cc:Work>
</rdf:RDF>
</metadata>
  <g
     style="fill:#b3b3b3;stroke:none;fill-opacity:0.5"
     id="g10"
     transform="matrix(0.13366892,0,0,-0.13366892,-28.619557,615.39433)">
    <path
       style="fill:#b3b3b3;fill-opacity:0.5"
       id="path4"
       d="m 1904,4372 c -106,-37 -204,-103 -292,-196 -67,-71 -150,-184 -186,-255 -10,-18 -21,-29 -26,-25 -4,5 -13,54 -19,109 -8,64 -17,106 -28,117 -24,26 -69,23 -88,-6 -15,-22 -14,-40 11,-228 14,-112 31,-214 38,-228 16,-35 60,-54 94,-42 15,5 108,61 207,125 167,106 180,117 183,146 8,81 -50,81 -176,1 -52,-34 -97,-58 -100,-56 -7,8 62,119 119,192 90,114 186,189 296,230 171,65 288,-11 417,-270 265,-532 325,-1543 135,-2291 -76,-299 -204,-543 -328,-630 -88,-60 -199,-42 -346,56 -123,83 -232,220 -321,402 -82,171 -76,162 -110,165 -60,6 -79,-40 -48,-114 76,-183 177,-339 293,-454 201,-197 412,-257 637,-181 86,29 163,81 259,176 249,246 416,656 481,1180 23,190 23,530 0,720 -50,401 -169,756 -341,1015 -62,93 -202,234 -278,279 -112,66 -172,84 -292,88 -101,4 -117,2 -191,-25 z" />
    <path
       style="fill:#b3b3b3;fill-opacity:0.5"
       id="path6"
       d="m 3505,3535 c -5,-2 -89,-14 -185,-26 -151,-20 -178,-26 -197,-45 -42,-42 -32,-73 78,-248 136,-216 144,-226 179,-226 30,0 60,30 60,60 0,9 -29,63 -66,119 -36,57 -63,105 -61,107 7,7 163,-95 229,-150 151,-127 248,-315 219,-423 -35,-130 -223,-259 -515,-355 -72,-23 -134,-47 -137,-51 -4,-5 -10,-37 -13,-71 -4,-33 -18,-116 -32,-184 -14,-68 -24,-127 -22,-132 5,-14 242,84 351,145 504,282 635,693 336,1053 -69,83 -187,181 -289,238 -38,21 -70,42 -70,45 0,3 48,12 107,19 89,11 111,18 131,37 25,25 23,58 -6,81 -14,11 -72,15 -97,7 z" />
    <path
       style="fill:#b3b3b3;fill-opacity:0.5"
       id="path8"
       d="M 1020,3440 C 837,3358 711,3274 595,3155 313,2868 321,2531 618,2248 c 102,-97 207,-167 356,-238 268,-127 547,-200 882,-230 120,-11 537,-10 548,1 15,14 81,411 70,422 -1,1 -74,-1 -161,-5 -298,-14 -716,16 -992,73 -478,97 -811,291 -811,472 0,41 32,136 64,191 89,152 276,301 496,396 89,38 103,49 103,86 0,28 -33,65 -57,63 -6,0 -49,-17 -96,-39 z" />
  </g>
</svg>
