<svg xmlns="http://www.w3.org/2000/svg" width="42" height="42"><path d="M36.127 10.11a12.38 12.38 0 011.57 1.89c.872-1.144 1.595-2.66 1.994-4.202.623-2.412.299-4.376-.922-5.57-1.196-1.218-3.19-1.541-5.582-.92-1.52.398-3.04 1.12-4.187 1.99.673.472 1.296.994 1.869 1.566l5.258 5.246zM38.86 19l-8.816.129L29 23.24 35.315 30a19.852 19.852 0 001.748-2.339c1.651-2.621 2.234-5.705 1.797-8.661zM6.554 27.783l1.374 5.422c.096.434.433.771.867.867l5.422 1.374A18.4 18.4 0 0018 36l2-10.964L16.964 22 6 24a18.4 18.4 0 00.554 3.783zM10.922 9c-.647.745-1.178 1.541-1.687 2.363C7.317 14.55 6.208 18.25 6 22l9.96-2.03L17 15.705 10.922 9zM19 21.725L22.275 25l4.5-1.198 1.225-4.5L24.698 16l-4.5 1.225zM13 7.661L19.16 14l3.723-1.044L23 4.14a10.772 10.772 0 00-7.892 1.797c-.75.51-1.452 1.093-2.108 1.724zm25 9.217a11.542 11.542 0 00-2.645-4.066l-5.167-5.167A11.544 11.544 0 0026.122 5L26 13.694 29.306 17 38 16.878zm-15.127 9.256L21 37c3.462-.227 6.878-1.437 9.818-3.53.76-.554 1.494-1.134 2.182-1.815L26.81 25l-3.937 1.134zM5.01 34.128L4.49 32l-.285.285c-1.17 1.169-1.923 4.7-2.183 6.179-.078.415.052.857.364 1.142.334.371.896.446 1.143.364 1.481-.26 5.015-1.013 6.185-2.181l.286-.286-2.131-.545a3.903 3.903 0 01-2.859-2.83zM4.625 2.953C6.354 3.964 8.13 5.456 9.54 7c1-1.171 2.092-2.236 3.298-3.194A12.44 12.44 0 0117 1.676C13.201.08 8.947-.48 4.92.452c-.477.106-.84.559-.909 1.144-.068.56.182 1.092.614 1.358zM40.293 25c-.397 1.568-1.111 3.087-2.117 4.508A24.901 24.901 0 0135 33.061c1.535 1.52 3 3.414 4.006 5.276.43.752 1.318.655 1.35.662.582-.073 1.102-.465 1.208-.98.926-4.337.317-8.927-1.27-13.019zm-36.35-5C1.665 21.861 0 24.75 0 27.724c0 .517.338.982.844 1.19.782.204 1.31.02 1.643-.285.394-.362 1.035-.822 1.513-1.002A22.395 22.395 0 013.944 20zM14.37 38a5.542 5.542 0 01-1 1.467c-.36.417-.464 1.143-.283 1.672.206.5.67.861 1.212.861 2.938 0 5.82-1.693 7.701-3.917a26.345 26.345 0 01-3.635.279c-1.34 0-2.68-.14-3.995-.362z" fill="#00c7e6"/></svg>