<svg xmlns="http://www.w3.org/2000/svg" xmlns:xlink="http://www.w3.org/1999/xlink" width="38" height="42"><defs><path id="a" d="M.003.046h26.968v23.432H.003z"/></defs><g fill="#00c7e6" fill-rule="evenodd"><g transform="translate(11.057 18)"><mask id="b"><use xlink:href="#a"/></mask><path d="M.629 23.478v-2.352h4.538l.538-2.266 2.394.368-.411 1.883c.69 0 1.356.005 2.022-.008.074-.002.193-.1.211-.171.324-1.321.635-2.645.957-4-.815 0-1.59.003-2.363 0C4.208 16.923.555 13.707.06 9.49-.472 4.948 2.737.77 7.29.155c1.066-.144 2.16-.1 3.241-.103C15.84.042 21.145.047 26.452.047h.426c.919 8.508-5.094 15.941-13.474 16.834l-1.628 6.597H.63z" mask="url(#b)"/></g><path d="M14.723 3.427h-.005c-.626 0-1.134.514-1.134 1.148a1.14 1.14 0 001.134 1.147h.005c.627 0 1.135-.513 1.135-1.147s-.508-1.148-1.135-1.148m3.401 10.585l1.16.648c-4.192.496-7.279 2.52-8.961 6.367C8.638 24.881 9.22 28.554 11.677 32c-.179-.068-.329-.11-.463-.18-3.366-1.76-5.51-4.453-6.044-8.3-.47-3.387.533-6.331 2.847-8.814 1.128-1.21 2.28-2.4 3.418-3.599.82-.863.819-2.068-.022-2.913-1.039-1.043-2.09-2.072-3.14-3.103-.1-.1-.225-.175-.373-.287 1.177-1.156 2.213-2.348 3.418-3.328 3.94-3.205 9.804-.903 10.638 4.138.334 2.023-.162 3.838-1.448 5.427-.73.902-1.463 1.8-2.193 2.702-.064.079-.118.166-.19.269"/><path d="M.057 10.88L6.01 6l4.047 3.312c-.157.084-.275.153-.4.211-1.408.664-2.817 1.326-4.226 1.987-1.45.68-2.886.647-4.304-.066-.349-.176-.69-.363-1.07-.564"/></g></svg>