<svg xmlns="http://www.w3.org/2000/svg" viewBox="0 0 512 512" height="512pt" width="512pt" version="1.0"><g fill="#b3b3b3" fill-opacity=".5"><path d="M225.886 30.994c-14.169 4.946-27.268 13.768-39.031 26.199-8.956 9.49-20.05 24.595-24.863 34.085-1.336 2.407-2.807 3.877-3.475 3.342-.535-.668-1.738-7.218-2.54-14.57-1.07-8.555-2.272-14.169-3.743-15.639-3.208-3.475-9.223-3.074-11.762.802-2.005 2.94-1.872 5.347 1.47 30.477 1.871 14.97 4.144 28.605 5.08 30.476 2.138 4.678 8.02 7.218 12.564 5.614 2.005-.668 14.437-8.154 27.67-16.708 22.322-14.17 24.06-15.64 24.461-19.516 1.07-10.827-6.683-10.827-23.526-.134-6.95 4.545-12.965 7.753-13.366 7.486-.936-1.07 8.287-15.907 15.906-25.665 12.03-15.238 24.863-25.263 39.566-30.744 22.858-8.688 38.497 1.47 55.74 36.091 35.422 71.112 43.442 206.251 18.045 306.236-10.158 39.967-27.268 72.582-43.843 84.21-11.763 8.021-26.6 5.615-46.25-7.485-16.44-11.094-31.01-29.407-42.907-53.734-10.961-22.858-10.159-21.655-14.704-22.056-8.02-.802-10.56 5.347-6.416 15.238 10.159 24.462 23.66 45.314 39.165 60.686 26.868 26.333 55.072 34.353 85.147 24.194 11.496-3.876 21.788-10.827 34.62-23.526 33.284-32.882 55.607-87.686 64.295-157.729 3.075-25.397 3.075-70.844 0-96.241-6.683-53.602-22.59-101.054-45.58-135.674-8.288-12.432-27.002-31.279-37.16-37.294-14.972-8.822-22.992-11.228-39.032-11.763-13.5-.535-15.64-.267-25.53 3.342zM439.89 142.875c-.668.267-11.897 1.871-24.729 3.475-20.184 2.673-23.793 3.475-26.333 6.015-5.614 5.614-4.277 9.758 10.427 33.15 18.179 28.873 19.248 30.21 23.926 30.21 4.01 0 8.02-4.01 8.02-8.02 0-1.204-3.876-8.422-8.822-15.907-4.812-7.62-8.42-14.036-8.153-14.303.935-.936 21.788 12.698 30.61 20.05 20.184 16.976 33.15 42.106 29.273 56.542-4.678 17.377-29.808 34.62-68.84 47.453-9.623 3.074-17.91 6.282-18.312 6.817-.535.668-1.337 4.946-1.738 9.49-.534 4.411-2.406 15.506-4.277 24.595-1.871 9.09-3.208 16.976-2.94 17.645.668 1.871 32.347-11.228 46.917-19.382 67.37-37.695 84.88-92.633 44.913-140.754-9.223-11.094-24.996-24.194-38.63-31.813-5.08-2.807-9.357-5.614-9.357-6.015 0-.401 6.416-1.604 14.302-2.54 11.897-1.47 14.838-2.406 17.51-4.945 3.343-3.342 3.075-7.753-.801-10.828-1.871-1.47-9.624-2.005-12.966-.935z"/><path d="M107.723 155.573c-24.462 10.961-41.304 22.19-56.81 38.096-37.694 38.363-36.625 83.41 3.075 121.238 13.634 12.965 27.67 22.322 47.586 31.813 35.823 16.976 73.117 26.734 117.896 30.744 16.04 1.47 71.78 1.336 73.25-.134 2.006-1.871 10.828-54.938 9.357-56.408-.133-.134-9.891.133-21.52.668-39.834 1.871-95.707-2.139-132.6-9.758-63.894-12.966-108.405-38.897-108.405-63.092 0-5.48 4.277-18.178 8.554-25.53 11.897-20.318 36.893-40.235 66.3-52.933 11.897-5.08 13.768-6.55 13.768-11.496 0-3.742-4.411-8.688-7.619-8.42-.802 0-6.55 2.272-12.832 5.212z"/></g></svg>