<svg xmlns="http://www.w3.org/2000/svg" xmlns:xlink="http://www.w3.org/1999/xlink" width="38" height="42" viewBox="0 0 38 42">
  <defs>
    <polygon id="group-9-a" points=".003 .046 26.971 .046 26.971 23.478 .003 23.478"/>
  </defs>
  <g fill="none" fill-rule="evenodd">
    <g transform="translate(11.057 18)">
      <mask id="group-9-b" fill="#00c7e6">
        <use xlink:href="#group-9-a"/>
      </mask>
      <path fill="#00c7e6" d="M0.628545536,23.478253 L0.628545536,21.1257628 L5.16695625,21.1257628 C5.34984911,20.3550909 5.52695625,19.6091621 5.70486696,18.8596759 C6.50000089,18.9818893 7.27102768,19.1003874 8.09910804,19.227581 C7.96587589,19.8374625 7.83039375,20.4573043 7.68751875,21.110664 C8.37754554,21.110664 9.04378661,21.1161976 9.70970625,21.1028379 C9.78363482,21.101415 9.90336696,21.0038656 9.92112589,20.9317708 C10.2448848,19.610664 10.5562687,18.2866324 10.8775366,16.9328775 C10.0626348,16.9328775 9.28871518,16.9345375 8.51471518,16.9326403 C4.20773304,16.9218893 0.554938393,13.7059209 0.0607419643,9.49042688 C-0.471784821,4.94789723 2.73711696,0.769478261 7.29159911,0.155011858 C8.35665268,0.0112964427 9.45111696,0.0541422925 10.5321616,0.0522450593 C15.8385455,0.0428379447 21.1449295,0.0473438735 26.4513937,0.0469486166 C26.5951527,0.0468695652 26.738992,0.0469486166 26.8780098,0.0469486166 C27.7969741,8.55548617 21.7844116,15.9882925 13.4036438,16.8805455 C12.8619562,19.0766719 12.3192241,21.2774625 11.7764116,23.478253 L0.628545536,23.478253 Z" mask="url(#group-9-b)"/>
    </g>
    <path fill="#00c7e6" d="M14.7230099,3.42730213 L14.7183386,3.42730213 C14.0917659,3.42730213 13.5837656,3.94106276 13.5837656,4.57491611 C13.5837656,5.20869071 14.0917659,5.72245133 14.7183386,5.72245133 L14.7230099,5.72245133 C15.3495825,5.72245133 15.857505,5.20869071 15.857505,4.57491611 C15.857505,3.94106276 15.3495825,3.42730213 14.7230099,3.42730213 M18.1243154,14.0119995 C18.4991846,14.2212364 18.8535003,14.418976 19.2848918,14.6597915 C15.0918843,15.1563847 12.0054222,17.1803212 10.3229873,21.027226 C8.63751618,24.8812181 9.2204125,28.5544806 11.6771878,32 C11.4984339,31.9315668 11.3484863,31.8908534 11.2137202,31.820294 C7.84838339,30.0603253 5.70372665,27.366547 5.17019005,23.5196422 C4.70057196,20.1332636 5.70263668,17.1889837 8.01724971,14.7057023 C9.14528295,13.4954826 10.2962054,12.306919 11.4354497,11.1073305 C12.2554907,10.2440016 12.2535443,9.03890058 11.4126383,8.19423528 C10.3742934,7.15143666 9.32255755,6.12226168 8.27331302,5.09064547 C8.17218008,4.99118506 8.04761295,4.9162157 7.90046803,4.80439165 C9.07692674,3.64764276 10.1134031,2.45616541 11.3178894,1.47620875 C15.25787,-1.72936144 21.1220235,0.573268946 21.9557668,5.61401351 C22.2903853,7.63700503 21.7938296,9.45170457 20.5076739,11.0409448 C19.7778662,11.9427821 19.0449444,12.8419419 18.3146696,13.7434643 C18.2510625,13.8219773 18.1971872,13.9086016 18.1243154,14.0119995"/>
    <path fill="#00c7e6" d="M0.0571428571,10.8799904 C2.05691275,9.24065576 4.02092822,7.63064797 6.01007799,6 C7.36095814,7.10543722 8.69210254,8.19476322 10.0571429,9.31170845 C9.89961097,9.39553131 9.78208157,9.46457937 9.65764908,9.5232331 C8.24924325,10.18654 6.84039492,10.8490302 5.43057307,11.5102582 C3.98119125,12.1900475 2.54526159,12.1568599 1.12703214,11.4436602 C0.778072472,11.2682187 0.437520403,11.080898 0.0571428571,10.8799904"/>
  </g>
</svg>
