<svg xmlns="http://www.w3.org/2000/svg" width="47" height="42" viewBox="0 0 47 42">
  <path fill="#00c7e6" d="M46.4886154,41.0104615 C46.2141538,39.9409231 42.8664615,38.4258462 42.8664615,38.4258462 C41.5409231,38.5772308 40.7630769,37.5803077 40.7630769,37.5803077 C40.0516923,36.7729231 39.6307692,37.8227692 39.6307692,37.8227692 C38.9895385,39.0055385 36.3175385,39.6910769 36.3175385,39.6910769 C34.5292308,41.9716923 34.3569231,41.3427692 34.3569231,41.3427692 C33.5901538,39.3329231 38.0073846,32.3556923 38.0073846,32.3556923 C32.3569231,21.5286154 15.4104615,13.232 15.4104615,13.232 C15.5556923,12.5956923 16.8923077,11.4326154 16.8923077,11.4326154 L16.6289231,10.8369231 C14.5723077,10.72 12.6793846,18.9747692 12.6793846,18.9747692 C10.4332308,17.2812308 10.6621538,11.2061538 10.6621538,11.2061538 C9.37969231,10.2830769 4.85784615,8.92061538 2.80738462,8.8 C1.31938462,8.71384615 0.691692308,8.52184615 0.294153846,7.99753846 C-1.26153846,5.94830769 3.872,5.08307692 3.872,5.08307692 C8.79138462,-3.61230769 22.4443077,2.72738462 22.4443077,2.72738462 C26.5206154,-0.577230769 30.2129231,0.708923077 30.2129231,0.708923077 C33.0092308,1.57169231 31.3107692,1.85723077 31.3107692,1.85723077 C28.3876923,2.736 28.1403077,6.21784615 28.1403077,6.21784615 C40.8135385,15.7686154 40.1021538,29.4387692 40.1021538,29.4387692 C40.1784615,30.6535385 40.0886154,31.7649231 40.0886154,31.7649231 C44.5341538,34.4283077 46.1870769,38.3606154 46.1870769,38.3606154 C47.3784615,41.2763077 46.4886154,41.0104615 46.4886154,41.0104615 Z"/>
</svg>
